<mxfile
  host="Electron" 
  agent="Mozilla/5.0 (Macintosh; Intel Mac OS X 10_15_7) AppleWebKit/537.36 (KHTML, like Gecko) draw.io/25.0.2 Chrome/128.0.6613.186 Electron/32.2.5 Safari/537.36" 
  version="25.0.2"
  >
  <diagram
    name="-"
    >
    <mxGraphModel
      grid="1" 
      gridSize="10" 
      guides="1" 
      tooltips="1" 
      connect="1" 
      arrows="1" 
      fold="1" 
      page="1" 
      pageScale="1" 
      pageWidth="1" 
      pageHeight="1" 
      math="0" 
      shadow="0"
      >
      <root>
        <mxCell
          id="page"
          />
        <mxCell
          id="root" 
          parent="page"
          />
        <mxCell
          style="verticalAlign=top;aspect=fixed;align=center;spacingLeft=5;spacingRight=5;spacingBottom=5;strokeColor=none;" 
          id="shape_" 
          parent="root" 
          value=" " 
          vertex="1"
          >
          <mxGeometry
            as="geometry" 
            width="102" 
            height="98" 
            x="0" 
            y="0"
            />
          </mxCell>
        <mxCell
          style="rounded=1;whiteSpace=wrap;verticalAlign=top;align=center;sketch=0;html=1;labelPosition=center;verticalLabelPosition=bottom;spacingTop=-6;fontSize=11;fontStyle=1;fontColor=#999999;shape=image;aspect=fixed;imageAspect=0;image=data:image/svg+xml,PHN2ZyB4bWxucz0iaHR0cDovL3d3dy53My5vcmcvMjAwMC9zdmciIGlkPSJzdmcxMDczNDEiIHZlcnNpb249IjEuMSIgdmlld0JveD0iMCAwIDI3NS45ODY2OSAyNTIuNDI5NTMiIGhlaWdodD0iMjUyLjQyOTUzbW0iIHdpZHRoPSIyNzUuOTg2NjltbSI+JiN4YTsgICYjeGE7ICA8ZGVmcyBpZD0iZGVmczEwNzMzOCIvPiYjeGE7ICA8ZyB0cmFuc2Zvcm09InRyYW5zbGF0ZSgzMi40NTE1MzMsLTIwLjk0NjAxKSIgaWQ9ImxheWVyMSI+JiN4YTsgICAgPHBhdGggZD0ibSAxMDEuNjgwMDksMjczLjM3NTU0IGMgLTE2LjQ1MjEyLDAgLTMwLjkxMzQyMiwtMTQuMTc3MzIgLTMwLjkxMzQyMiwtMzQuMjM1OSAwLC0xOS4xNzQ5OSAxNS4xNTE1MjIsLTMzLjY1ODA3IDMzLjUxMzYxMiwtMzMuNjU4MDcgaCAxMDQuODc0NTEgdiA2Ny44OTM5NyB6IE0gLTEuNTM4MTA0NiwxODEuODUzMzYgYyAtMTYuNDUyMTI2NCwwIC0zMC45MTM0Mjg0LC0xNC4xNzczMiAtMzAuOTEzNDI4NCwtMzQuMjM1ODkgMCwtMTkuMTc1IDE1LjE1MTUxOSwtMzMuNjU4MDggMzMuNTEzNjE4NCwtMzMuNjU4MDggSCAxMDUuOTM2NiB2IDY3Ljg5Mzk3IHogTSAxMDEuNjgwMSw4OC44Mzk5OCBjIC0xNi40NTIxMzEsMCAtMzAuOTEzNDMzLC0xNC4xNzczMTcgLTMwLjkxMzQzMywtMzQuMjM1ODk1IDAsLTE5LjE3NDk5NCAxNS4xNTE1MTksLTMzLjY1ODA3NSAzMy41MTM2MjMsLTMzLjY1ODA3NSBIIDIwOS4xNTQ4IHYgNjcuODkzOTcgeiIgc3R5bGU9Im9wYWNpdHk6MTtmaWxsOiM3NjllZjU7ZmlsbC1vcGFjaXR5OjE7c3Ryb2tlOm5vbmU7c3Ryb2tlLXdpZHRoOjAuMjY0NTgzcHg7c3Ryb2tlLWxpbmVjYXA6YnV0dDtzdHJva2UtbGluZWpvaW46bWl0ZXI7c3Ryb2tlLW9wYWNpdHk6MSIgaWQ9InBhdGgxMDc2MTAtMyIvPiYjeGE7ICAgIDxwYXRoIGQ9Im0gMjQzLjUzNTE1LDIzOS40Mjg1NSBjIDAsMTguOTg3NzUgLTE1LjM5MjYxLDMzLjk0Njk5IC0zNC4zODAzNiwzMy45NDY5OSAtMTguOTg3NzQsMCAtMzQuMzgwMzQsLTE0Ljk1OTI0IC0zNC4zODAzNCwtMzMuOTQ2OTkgMCwtMTguOTg3NzQgMTUuMzkyNiwtMzMuOTQ2OTggMzQuMzgwMzQsLTMzLjk0Njk4IDE4Ljk4Nzc1LC0xZS01IDM0LjM4MDM2LDE0Ljk1OTI0IDM0LjM4MDM2LDMzLjk0Njk4IHogTSAxNDAuMzE2OTYsMTQ3LjkwNjM4IGMgMCwxOC45ODc3NCAtMTUuMzkyNjEsMzMuOTQ2OTkgLTM0LjM4MDM2LDMzLjk0Njk4IC0xOC45ODc3NDUsMCAtMzQuMzgwMzU1LC0xNC45NTkyNCAtMzQuMzgwMzU1LC0zMy45NDY5OCAwLC0xOC45ODc3NSAxNS4zOTI2MSwtMzMuOTQ2OTkgMzQuMzgwMzU1LC0zMy45NDY5OSAxOC45ODc3NSwwIDM0LjM4MDM2LDE0Ljk1OTI0IDM0LjM4MDM2LDMzLjk0Njk5IHogTSAyNDMuNTM1MTUsNTQuODkyOTk0IGMgMCwxOC45ODc3NDcgLTE1LjM5MjYxLDMzLjk0Njk5IC0zNC4zODAzNiwzMy45NDY5ODYgLTE4Ljk4Nzc0LC0xMGUtNyAtMzQuMzgwMzQsLTE0Ljk1OTI0MyAtMzQuMzgwMzQsLTMzLjk0Njk4NiAwLC0xOC45ODc3NDMgMTUuMzkyNiwtMzMuOTQ2OTgzIDM0LjM4MDM0LC0zMy45NDY5ODQgMTguOTg3NzUsLTVlLTYgMzQuMzgwMzYsMTQuOTU5MjM3IDM0LjM4MDM2LDMzLjk0Njk4NCB6IiBzdHlsZT0ib3BhY2l0eToxO2ZpbGw6IzQwNzVlNjtmaWxsLW9wYWNpdHk6MTtzdHJva2Utd2lkdGg6MjE7c3Ryb2tlLWxpbmVqb2luOnJvdW5kIiBpZD0icGF0aDEwNzYzNC00Ii8+JiN4YTsgIDwvZz4mI3hhOzwvc3ZnPg;strokeColor=none;" 
          id="google_data_studio_" 
          parent="shape_" 
          value=" " 
          vertex="1"
          >
          <mxGeometry
            width="42" 
            height="38" 
            as="geometry" 
            x="30" 
            y="30"
            />
          </mxCell>
        </root>
      </mxGraphModel>
    </diagram>
  </mxfile>